PathFileType	4	(X/Y/Z)	6_coords_data.trc
DataRate	CameraRate	NumFrames	NumMarkers	Units	OrigDataRate	OrigDataStartFrame	OrigNumFrames
30.0	30.0	6	21	m	30.0	57	66
Frame#	Time	THUMB_TIP	THUMB_IP	THUMB_MCP	THUMB_CMC	INDEX_TIP	INDEX_DIP	INDEX_PIP	INDEX_MCP	MIDDLE_TIP	MIDDLE_DIP	MIDDLE_PIP	MIDDLE_MCP	RING_TIP	RING_DIP	RING_PIP	RING_MCP	PINKY_TIP	PINKY_DIP	PINKY_PIP	PINKY_MCP	WRIST
X1	Y1	Z1	X2	Y2	Z2	X3	Y3	Z3	X4	Y4	Z4	X5	Y5	Z5	X6	Y6	Z6	X7	Y7	Z7	X8	Y8	Z8	X9	Y9	Z9	X10	Y10	Z10	X11	Y11	Z11	X12	Y12	Z12	X13	Y13	Z13	X14	Y14	Z14	X15	Y15	Z15	X16	Y16	Z16	X17	Y17	Z17	X18	Y18	Z18	X19	Y19	Z19	X20	Y20	Z20	X21	Y21	Z21
56	1.8666666666666667	0.06279899978637696	-0.07976309967041016	1.005739990234375	0.04685509872436523	-0.061505298614501956	1.0198900146484375	0.022453699111938476	-0.054394599914550784	1.0419200439453125	0.002972039937973022	-0.028100799560546875	1.05518994140625	0.04413330078125	-0.05558259963989258	0.9291799926757812	0.027858699798583984	-0.0562958984375	0.9449400024414063	0.012350799560546875	-0.05591350173950195	0.9642559814453125	-0.004625710010528564	-0.05028580093383789	1.00075	0.03950339889526367	-0.02485140037536621	0.9109710083007813	0.023836399078369142	-0.0267987003326416	0.9299769897460938	0.005364689826965332	-0.028298599243164062	0.954885986328125	-0.011794500350952149	-0.027073600769042968	0.9942570190429687	0.036501598358154294	0.009488869667053222	0.9178159790039062	0.022492700576782227	0.006164690017700195	0.9366430053710938	0.006938320159912109	0.0018298799991607662	0.9604180297851562	-0.009801360130310058	-0.0047292098999023435	0.9981480102539062	0.03711130142211914	0.032166599273681644	0.9598040161132813	0.020749000549316405	0.030449899673461914	0.9686790161132812	0.005825590133666992	0.026434999465942383	0.9805399780273437	-0.006790019989013672	0.015554300308227539	1.0054600219726562	-0.031045900344848634	-0.008759090423583984	1.07556005859375
57	1.9	0.06264550018310547	-0.07969879913330079	1.005219970703125	0.04685110092163086	-0.06144150161743164	1.0194400024414063	0.022599599838256837	-0.05431639862060547	1.0416300048828124	0.0030923199653625486	-0.02815250015258789	1.054969970703125	0.04387929916381836	-0.05566759872436523	0.9288709716796875	0.027677700042724608	-0.05637879943847656	0.944802001953125	0.012167799949645995	-0.0560015983581543	0.9642750244140625	-0.004586669921875	-0.05050329971313477	1.0007899780273437	0.039527698516845705	-0.025083999633789062	0.9108410034179687	0.023899499893188476	-0.02703499984741211	0.9298189697265625	0.005378650188446045	-0.028527000427246093	0.954802001953125	-0.011764100074768066	-0.027266300201416016	0.9941710205078125	0.03672719955444336	0.009383870124816894	0.9178419799804688	0.022817300796508788	0.006055830001831054	0.9367670288085937	0.007119770050048828	0.001685660004615783	0.9604739990234376	-0.009739219665527344	-0.004908050060272217	0.9980560302734375	0.03759000015258789	0.03184749984741211	0.9597550048828125	0.020899999618530275	0.03019339942932129	0.9687119750976563	0.006059239864349366	0.026223400115966796	0.9805679931640625	-0.006659160137176514	0.015399900436401368	1.0054199829101562	-0.03088960075378418	-0.008876239776611328	1.0753800048828126
58	1.9333333333333333	0.06255860137939454	-0.07947059631347657	1.0046900024414063	0.046878299713134765	-0.061284000396728516	1.0191300048828125	0.022677299499511718	-0.054225700378417965	1.0414300537109376	0.003214839935302734	-0.02818320083618164	1.0548499755859375	0.04380459976196289	-0.05550040054321289	0.9287119750976562	0.027525199890136718	-0.05631520080566406	0.9446690063476563	0.012017000198364257	-0.05593170166015625	0.9642009887695312	-0.004538459777832031	-0.05060290145874023	1.0008200073242188	0.039219501495361325	-0.025167699813842773	0.9106240234375	0.02367020034790039	-0.02713450050354004	0.9296909790039063	0.00523183012008667	-0.028686599731445314	0.9546300048828125	-0.011628499984741211	-0.027309499740600585	0.9941630249023438	0.03637649917602539	0.009258399963378907	0.9175869750976563	0.02243239974975586	0.005889309883117676	0.9365449829101562	0.006896120071411133	0.0015181900262832642	0.9603489990234375	-0.009697319984436036	-0.005005020141601562	0.9979639892578125	0.03749829864501953	0.03165830039978027	0.9596829833984375	0.020858200073242187	0.030014299392700197	0.9685869750976562	0.006052919864654541	0.026056400299072267	0.9804299926757812	-0.006635049819946289	0.015262599945068359	1.0053800048828125	-0.030750299453735353	-0.00897957992553711	1.0753699951171876
59	1.9666666666666666	0.06268939971923829	-0.07947419738769532	1.004719970703125	0.04699029922485352	-0.061255699157714845	1.0191400146484375	0.022834299087524414	-0.054303600311279294	1.0413900146484374	0.003349889993667602	-0.02820509910583496	1.0548299560546874	0.04385540008544922	-0.05558610153198242	0.9287369995117187	0.02769820022583008	-0.05640489959716797	0.9446589965820312	0.012372699737548828	-0.05610409927368164	0.9640139770507813	-0.004396200180053711	-0.050571300506591796	1.0011199951171874	0.03929199981689453	-0.025358200073242188	0.9106290283203125	0.02376219940185547	-0.027306299209594726	0.9296179809570313	0.005286870002746582	-0.02877199935913086	0.954677978515625	-0.011569499969482422	-0.027430799484252928	0.9940830078125	0.036644901275634766	0.009153070449829102	0.91764697265625	0.02271190071105957	0.0057605400085449215	0.9365889892578125	0.007163670063018799	0.001442540049552917	0.9604010009765624	-0.009623270034790039	-0.005108439922332763	0.99793798828125	0.03776480102539063	0.031558300018310545	0.9596430053710937	0.021023000717163086	0.029887699127197267	0.968551025390625	0.00620166015625	0.02594619941711426	0.9803930053710938	-0.006550990104675293	0.015199899673461914	1.0053800048828125	-0.0307495002746582	-0.009050270080566407	1.0753199462890626
60	2.0	0.06287210083007813	-0.07920590209960937	1.0047000122070313	0.047060501098632815	-0.061062599182128904	1.0191500244140625	0.02292530059814453	-0.054242000579833985	1.0413599853515625	0.0034638099670410154	-0.028206300735473634	1.05481005859375	0.04391999816894531	-0.0556083984375	0.9287940063476563	0.027706499099731444	-0.05643140029907227	0.9446810302734375	0.012272199630737305	-0.0561239013671875	0.9640980224609375	-0.004532040119171143	-0.05067110061645508	1.0009099731445312	0.03926990127563477	-0.02548240089416504	0.9105670166015625	0.023738700866699217	-0.027387699127197265	0.9296619873046875	0.005347179889678955	-0.028869199752807616	0.9547860107421875	-0.011591099739074706	-0.02746419906616211	0.9942130126953125	0.03692940139770508	0.00910552978515625	0.9177630004882813	0.022978200912475585	0.005719659805297851	0.9367310180664062	0.00729518985748291	0.001389999985694885	0.960458984375	-0.009547630310058593	-0.005111110210418701	0.9979940185546875	0.038060100555419925	0.03137409973144531	0.9597420043945313	0.021228599548339843	0.029775999069213868	0.9686160278320313	0.006385879993438721	0.025873899459838867	0.9803729858398438	-0.006414929866790772	0.015163399696350098	1.0054600219726562	-0.030701000213623045	-0.008916210174560547	1.0753199462890626
61	2.033333333333333	0.06299900054931641	-0.07870539855957032	1.0044000244140625	0.04709859848022461	-0.06075279998779297	1.0188800048828126	0.02322330093383789	-0.05405239868164063	1.0411099853515624	0.003320149898529052	-0.02815439987182617	1.0546700439453125	0.04384439849853516	-0.05555670166015625	0.9287269897460938	0.027628900527954102	-0.0563760986328125	0.9445919799804687	0.012179499626159667	-0.05604299926757812	0.9640780029296875	-0.004459060192108154	-0.0506682014465332	1.0008400268554687	0.03917639923095703	-0.025436399459838867	0.9105460205078125	0.023739700317382813	-0.02736709976196289	0.9296010131835938	0.0053208799362182615	-0.028808799743652344	0.9546749877929688	-0.011609700202941895	-0.027433000564575195	0.9941209716796875	0.036930400848388674	0.009174449920654297	0.9177730102539062	0.023058200836181642	0.005783569812774658	0.9367789916992187	0.007282249927520752	0.001424200057983398	0.96052197265625	-0.009535599708557128	-0.005092319965362549	0.9980250244140625	0.03818119812011719	0.03132439994812012	0.9599390258789062	0.021428600311279297	0.029771799087524413	0.9686920166015625	0.006530360221862793	0.02590019989013672	0.98047802734375	-0.006425459861755371	0.015187700271606446	1.00547998046875	-0.030629100799560546	-0.008956069946289063	1.0754300537109376
